<svg width="25" height="25" viewBox="0 0 25 25" fill="none" xmlns="http://www.w3.org/2000/svg">
    <g id="Frame">
        <path id="Vector"
            d="M12.4999 1.49316C6.21415 1.49316 1.07129 6.63602 1.07129 12.9217C1.07129 19.2075 6.21415 24.3503 12.4999 24.3503C18.7856 24.3503 23.9284 19.2075 23.9284 12.9217C23.9284 6.63602 18.7856 1.49316 12.4999 1.49316ZM16.7284 13.7217L13.2999 17.1503C12.8427 17.6075 12.157 17.6075 11.6999 17.1503C11.2427 16.6932 11.2427 16.0075 11.6999 15.5503L13.1856 14.0646H9.07129C8.38558 14.0646 7.92843 13.6075 7.92843 12.9217C7.92843 12.236 8.38558 11.7789 9.07129 11.7789H13.1856L11.6999 10.2932C11.2427 9.83602 11.2427 9.15031 11.6999 8.69316C12.157 8.23602 12.8427 8.23602 13.2999 8.69316L16.7284 12.1217C17.1856 12.5789 17.1856 13.2646 16.7284 13.7217Z"
            fill="black" />
    </g>
</svg>