<svg width="166" height="129" viewBox="0 0 166 129" fill="none" xmlns="http://www.w3.org/2000/svg">
<g id="Group 36701">
<path id="Vector" d="M17.0399 67.1155C13.7014 71.8237 -1.27376 96.3139 28.2133 121.502C28.2133 121.502 5.80855 116.832 6.15591 86.6845C6.15591 86.6845 5.46119 71.0874 16.6732 66.6505C16.9627 66.5343 17.2136 66.8637 17.0399 67.1155Z" fill="url(#paint0_linear_85_240)"/>
<path id="Vector_2" d="M17.0783 56.2461V63.2018C17.0783 63.2018 1.44706 72.6956 7.37149 97.2634C13.2959 121.075 34.62 125.125 42.5514 122.587C50.6179 120.94 60.9616 114.604 66.1334 111.31C71.3052 108.017 94.2504 96.4884 100.194 104.083C100.194 104.083 101.738 106.312 101.603 107.978C101.603 107.978 89.9276 105.323 74.5087 113.577C59.0897 121.831 49.4987 131.306 30.3359 128.457C10.903 124.486 1.0611 104.994 0.0576131 90.0558C0.0576131 90.0558 -1.89147 67.0574 17.0783 56.2461Z" fill="#0D0E0B"/>
<path id="Vector_3" d="M31.1271 88.3315L36.5112 87.8472C36.5112 87.8472 39.2129 100.79 58.9546 112.706L54.4775 115.689C54.4775 115.689 38.3638 108.036 31.1271 88.3315Z" fill="#A66D29"/>
<path id="Vector_4" d="M124.297 86.2002L129.739 86.6846C129.739 86.6846 128.157 91.7803 124.702 93.8146C121.48 95.7134 116.057 100.712 115.266 101.72C115.266 101.72 121.981 93.6015 124.297 86.2002Z" fill="#986F2A"/>
<path id="Vector_5" d="M120.419 116.406C120.419 116.406 113.684 115.03 113.53 108.307C113.472 105.478 114.687 102.766 116.733 100.828C118.817 98.8521 122.117 96.1008 125.668 94.6089C125.668 94.6089 111.696 107.28 120.419 116.406Z" fill="#986F2A"/>
<path id="Vector_6" d="M144.348 68.3945V89.1066L147.609 87.9635L148.593 82.0734C148.613 82.0734 150.639 72.8508 144.348 68.3945Z" fill="#986F2A"/>
<path id="Vector_7" d="M142.168 53.8047H19.6074V84.1269H142.168V53.8047Z" fill="#0D0C0A"/>
<path id="Vector_8" d="M128.408 125.667C128.408 125.667 142.689 131.209 157.316 114.74C171.944 98.2709 163.646 78.7407 163.646 78.7407C163.646 78.7407 160.751 71.1844 155.695 67.8906L160.365 83.0808L160.23 94.609L156.564 103.599L153.032 110.555L147.204 116.387L138.404 119.157L128.408 125.667Z" fill="url(#paint1_linear_85_240)"/>
<path id="Vector_9" d="M162.372 84.6308C162.372 84.6308 165.209 96.4109 154.807 110.264C144.406 124.137 132.962 124.892 132.962 124.892C132.962 124.892 109.4 131.17 105.058 108.094C100.716 85.0183 61.348 111.136 61.348 111.136C41.9536 102.785 37.7081 84.3596 37.7081 84.3596H19.0664V53.4755H30.896C33.0766 36.096 56.0604 3.52629 98.2454 15.0158C131.727 27.0865 133.927 55.2387 133.927 55.2387H141.801V84.3983H122.638C122.638 84.3983 119.994 93.5628 115.015 98.3484C112.14 100.693 111.58 104.878 111.58 104.878C109.65 118.034 124.162 121.444 130.589 119.564C140.623 118.072 156.216 107.106 156.448 87.8665C155.444 68.5882 144.271 66.1663 144.271 66.1663V59.6175C162.276 66.205 162.372 84.6308 162.372 84.6308ZM53.6867 53.7661C55.2885 48.3605 63.0462 42.2767 63.0462 42.2767C71.0934 36.3866 84.3317 33.2478 95.8718 39.5254C107.219 45.7061 109.863 53.7661 109.863 53.7661H113.935C110.152 43.5167 101.603 38.2854 101.603 38.2854C85.3931 28.5009 71.3635 32.2984 62.1006 38.2854C52.8376 44.2723 50.1938 53.6693 50.1938 53.6693L53.6867 53.7661Z" fill="#0D0C0A"/>
<path id="Vector_10" d="M127.096 53.7659C127.096 53.7659 123.776 25.4588 88.4035 19.2006C52.6446 14.6474 37.8045 45.1633 37.2256 53.7078L43.9412 53.8047C43.9412 53.8047 49.6148 32.492 73.4476 27.28C97.2805 22.0681 117.447 39.7189 120.091 53.7659H127.096Z" fill="url(#paint2_linear_85_240)"/>
<path id="Vector_11" d="M81.1478 5.92881C82.7784 5.92881 84.1003 4.6016 84.1003 2.9644C84.1003 1.32721 82.7784 0 81.1478 0C79.5171 0 78.1952 1.32721 78.1952 2.9644C78.1952 4.6016 79.5171 5.92881 81.1478 5.92881Z" fill="white"/>
<path id="Vector_12" d="M80.3565 125.435C82.1364 125.435 83.5793 123.987 83.5793 122.2C83.5793 120.413 82.1364 118.964 80.3565 118.964C78.5767 118.964 77.1338 120.413 77.1338 122.2C77.1338 123.987 78.5767 125.435 80.3565 125.435Z" fill="white"/>
<path id="Vector_13" d="M50.8693 13.9309C51.9777 13.9309 52.8763 13.0288 52.8763 11.9159C52.8763 10.803 51.9777 9.90088 50.8693 9.90088C49.7609 9.90088 48.8623 10.803 48.8623 11.9159C48.8623 13.0288 49.7609 13.9309 50.8693 13.9309Z" fill="white"/>
<path id="Vector_14" d="M41.8576 21.6614C42.966 21.6614 43.8645 20.7592 43.8645 19.6464C43.8645 18.5335 42.966 17.6313 41.8576 17.6313C40.7491 17.6313 39.8506 18.5335 39.8506 19.6464C39.8506 20.7592 40.7491 21.6614 41.8576 21.6614Z" fill="white"/>
<path id="Vector_15" d="M27.8086 39.8352C28.917 39.8352 29.8155 38.9331 29.8155 37.8202C29.8155 36.7073 28.917 35.8052 27.8086 35.8052C26.7001 35.8052 25.8016 36.7073 25.8016 37.8202C25.8016 38.9331 26.7001 39.8352 27.8086 39.8352Z" fill="white"/>
<path id="Vector_16" d="M113.665 14.1825C115.018 14.1825 116.115 13.0809 116.115 11.7219C116.115 10.3629 115.018 9.26123 113.665 9.26123C112.311 9.26123 111.214 10.3629 111.214 11.7219C111.214 13.0809 112.311 14.1825 113.665 14.1825Z" fill="white"/>
<path id="Vector_17" d="M32.5361 105.614C33.6445 105.614 34.5431 104.712 34.5431 103.599C34.5431 102.486 33.6445 101.584 32.5361 101.584C31.4277 101.584 30.5291 102.486 30.5291 103.599C30.5291 104.712 31.4277 105.614 32.5361 105.614Z" fill="white"/>
<path id="Vector_18" d="M99.3068 121.289C100.415 121.289 101.314 120.387 101.314 119.274C101.314 118.161 100.415 117.259 99.3068 117.259C98.1984 117.259 97.2998 118.161 97.2998 119.274C97.2998 120.387 98.1984 121.289 99.3068 121.289Z" fill="white"/>
<path id="Vector_19" d="M125.05 110.109C126.158 110.109 127.057 109.207 127.057 108.094C127.057 106.981 126.158 106.079 125.05 106.079C123.942 106.079 123.043 106.981 123.043 108.094C123.043 109.207 123.942 110.109 125.05 110.109Z" fill="white"/>
<path id="Vector_20" d="M136.147 40.5715C137.255 40.5715 138.154 39.6694 138.154 38.5565C138.154 37.4437 137.255 36.5415 136.147 36.5415C135.038 36.5415 134.14 37.4437 134.14 38.5565C134.14 39.6694 135.038 40.5715 136.147 40.5715Z" fill="white"/>
<path id="Vector_21" d="M69.0476 7.57545C69.7723 7.57545 70.3599 6.98558 70.3599 6.25794C70.3599 5.5303 69.7723 4.94043 69.0476 4.94043C68.3229 4.94043 67.7354 5.5303 67.7354 6.25794C67.7354 6.98558 68.3229 7.57545 69.0476 7.57545Z" fill="white"/>
<path id="Vector_22" d="M60.4988 9.59059C61.2235 9.59059 61.811 9.00072 61.811 8.27308C61.811 7.54544 61.2235 6.95557 60.4988 6.95557C59.774 6.95557 59.1865 7.54544 59.1865 8.27308C59.1865 9.00072 59.774 9.59059 60.4988 9.59059Z" fill="white"/>
<path id="Vector_23" d="M33.7322 29.1985C34.4569 29.1985 35.0444 28.6086 35.0444 27.881C35.0444 27.1533 34.4569 26.5635 33.7322 26.5635C33.0074 26.5635 32.4199 27.1533 32.4199 27.881C32.4199 28.6086 33.0074 29.1985 33.7322 29.1985Z" fill="white"/>
<path id="Vector_24" d="M23.949 46.6751C24.6737 46.6751 25.2612 46.0852 25.2612 45.3576C25.2612 44.6299 24.6737 44.04 23.949 44.04C23.2242 44.04 22.6367 44.6299 22.6367 45.3576C22.6367 46.0852 23.2242 46.6751 23.949 46.6751Z" fill="white"/>
<path id="Vector_25" d="M26.6697 95.2874C27.3944 95.2874 27.9819 94.6975 27.9819 93.9699C27.9819 93.2422 27.3944 92.6523 26.6697 92.6523C25.9449 92.6523 25.3574 93.2422 25.3574 93.9699C25.3574 94.6975 25.9449 95.2874 26.6697 95.2874Z" fill="white"/>
<path id="Vector_26" d="M39.5037 111.911C40.2284 111.911 40.8159 111.321 40.8159 110.593C40.8159 109.866 40.2284 109.276 39.5037 109.276C38.7789 109.276 38.1914 109.866 38.1914 110.593C38.1914 111.321 38.7789 111.911 39.5037 111.911Z" fill="white"/>
<path id="Vector_27" d="M70.5525 121.889C71.2772 121.889 71.8647 121.3 71.8647 120.572C71.8647 119.844 71.2772 119.254 70.5525 119.254C69.8278 119.254 69.2402 119.844 69.2402 120.572C69.2402 121.3 69.8278 121.889 70.5525 121.889Z" fill="white"/>
<path id="Vector_28" d="M90.5837 120.804C91.3085 120.804 91.896 120.215 91.896 119.487C91.896 118.759 91.3085 118.169 90.5837 118.169C89.859 118.169 89.2715 118.759 89.2715 119.487C89.2715 120.215 89.859 120.804 90.5837 120.804Z" fill="white"/>
<path id="Vector_29" d="M131.593 101.236C132.317 101.236 132.905 100.646 132.905 99.9181C132.905 99.1905 132.317 98.6006 131.593 98.6006C130.868 98.6006 130.28 99.1905 130.28 99.9181C130.28 100.646 130.868 101.236 131.593 101.236Z" fill="white"/>
<path id="Vector_30" d="M135.703 94.9192C136.428 94.9192 137.015 94.3293 137.015 93.6017C137.015 92.8741 136.428 92.2842 135.703 92.2842C134.978 92.2842 134.391 92.8741 134.391 93.6017C134.391 94.3293 134.978 94.9192 135.703 94.9192Z" fill="white"/>
<path id="Vector_31" d="M141.743 46.1902C142.468 46.1902 143.055 45.6003 143.055 44.8727C143.055 44.145 142.468 43.5552 141.743 43.5552C141.018 43.5552 140.431 44.145 140.431 44.8727C140.431 45.6003 141.018 46.1902 141.743 46.1902Z" fill="white"/>
<path id="Vector_32" d="M129.084 27.8811C129.808 27.8811 130.396 27.2912 130.396 26.5636C130.396 25.836 129.808 25.2461 129.084 25.2461C128.359 25.2461 127.771 25.836 127.771 26.5636C127.771 27.2912 128.359 27.8811 129.084 27.8811Z" fill="white"/>
<path id="Vector_33" d="M122.309 21.6033C123.034 21.6033 123.622 21.0134 123.622 20.2858C123.622 19.5581 123.034 18.9683 122.309 18.9683C121.585 18.9683 120.997 19.5581 120.997 20.2858C120.997 21.0134 121.585 21.6033 122.309 21.6033Z" fill="white"/>
<path id="Vector_34" d="M103.012 9.35817C103.737 9.35817 104.324 8.7683 104.324 8.04066C104.324 7.31301 103.737 6.72314 103.012 6.72314C102.287 6.72314 101.7 7.31301 101.7 8.04066C101.7 8.7683 102.287 9.35817 103.012 9.35817Z" fill="white"/>
<path id="Vector_35" d="M92.1471 5.75465C92.8718 5.75465 93.4593 5.16478 93.4593 4.43714C93.4593 3.7095 92.8718 3.11963 92.1471 3.11963C91.4224 3.11963 90.8348 3.7095 90.8348 4.43714C90.8348 5.16478 91.4224 5.75465 92.1471 5.75465Z" fill="white"/>
<path id="Vector_36" d="M25.5504 75.4274C25.1837 75.4274 24.8749 75.3111 24.6048 75.0593C24.3539 74.788 24.2381 74.478 24.2381 74.1293V63.6085C24.2381 63.2404 24.3539 62.9304 24.6048 62.6591C24.8749 62.4073 25.1837 62.291 25.5504 62.291C25.917 62.291 26.2258 62.4073 26.4959 62.6591C26.7468 62.9304 26.8626 63.2404 26.8626 63.6085V74.1293C26.8626 74.4974 26.7468 74.8074 26.4959 75.0593C26.2258 75.2918 25.8977 75.4274 25.5504 75.4274Z" fill="url(#paint3_linear_85_240)"/>
<path id="Vector_37" d="M29.4674 63.5893C29.4674 62.9693 29.7569 62.5624 30.3358 62.3493C30.9147 62.1556 31.3972 62.2718 31.7831 62.7175L38.4602 70.545V63.57C38.4602 63.2018 38.576 62.8918 38.8269 62.6399C39.097 62.3687 39.4058 62.2524 39.7725 62.2524C40.1391 62.2524 40.4479 62.3881 40.718 62.6399C40.9689 62.8918 41.0847 63.2018 41.0847 63.57V74.0907C41.0847 74.7107 40.7952 75.1176 40.2163 75.3307C40.0812 75.3888 39.9268 75.4082 39.7725 75.4082C39.3672 75.4082 39.0391 75.2532 38.7883 74.9432L32.1112 67.1156V74.0907C32.1112 74.4588 31.9954 74.7688 31.7446 75.0207C31.4744 75.2919 31.1656 75.4082 30.799 75.4082C30.4323 75.4082 30.1235 75.2726 29.8534 75.0207C29.6025 74.7688 29.4867 74.4588 29.4867 74.0907V63.5893H29.4674Z" fill="url(#paint4_linear_85_240)"/>
<path id="Vector_38" d="M43.7096 63.5893C43.7096 62.9693 43.9991 62.5624 44.578 62.3493C45.1569 62.1556 45.6394 62.2718 46.0253 62.7175L52.7024 70.545V63.57C52.7024 63.2018 52.8182 62.8918 53.0691 62.6399C53.3392 62.3687 53.648 62.2524 54.0147 62.2524C54.3813 62.2524 54.6901 62.3881 54.9602 62.6399C55.2111 62.8918 55.3269 63.2018 55.3269 63.57V74.0907C55.3269 74.7107 55.0374 75.1176 54.4585 75.3307C54.3234 75.3888 54.169 75.4082 54.0147 75.4082C53.6094 75.4082 53.2813 75.2532 53.0305 74.9432L46.3148 67.135V74.1101C46.3148 74.4782 46.199 74.7882 45.9482 75.0401C45.678 75.3113 45.3692 75.4276 45.0026 75.4276C44.6359 75.4276 44.3271 75.2919 44.057 75.0401C43.8061 74.7882 43.6903 74.4782 43.6903 74.1101V63.5893H43.7096Z" fill="url(#paint5_linear_85_240)"/>
<path id="Vector_39" d="M63.7222 75.4276C61.9082 75.4276 60.3644 74.7882 59.0907 73.4901C57.7978 72.2113 57.1609 70.6613 57.1609 68.84C57.1609 67.0187 57.7978 65.4687 59.0907 64.19C60.3644 62.8918 61.9082 62.2524 63.7222 62.2524C65.5362 62.2524 67.08 62.8918 68.3537 64.19C69.6467 65.4687 70.2835 67.0187 70.2835 68.84C70.2835 70.6613 69.6467 72.2113 68.3537 73.4901C67.08 74.7688 65.5362 75.4276 63.7222 75.4276ZM63.7222 64.9068C62.6415 64.9068 61.7152 65.2943 60.9433 66.0694C60.1714 66.825 59.7855 67.755 59.7855 68.8594C59.7855 69.9638 60.1714 70.8744 60.9433 71.6494C61.6959 72.4244 62.6222 72.8119 63.7222 72.8119C64.8222 72.8119 65.7292 72.4244 66.5011 71.6494C67.273 70.8938 67.659 69.9638 67.659 68.8594C67.659 67.755 67.273 66.8444 66.5011 66.0694C65.7485 65.2943 64.8222 64.9068 63.7222 64.9068Z" fill="url(#paint6_linear_85_240)"/>
<path id="Vector_40" d="M81.7654 63.0079C81.9198 62.6785 82.1707 62.4654 82.518 62.3491C82.8654 62.2329 83.2127 62.2523 83.5215 62.4073C83.8496 62.5623 84.0618 62.8335 84.1776 63.1823C84.2934 63.5117 84.2741 63.8604 84.1004 64.1704L78.8514 74.6911C78.6199 75.1755 78.2339 75.4274 77.6936 75.4274C77.1532 75.4274 76.748 75.1755 76.5164 74.6911L71.2674 64.1704C71.113 63.841 71.0744 63.5117 71.1902 63.1823C71.306 62.8335 71.5182 62.5817 71.8463 62.4073C72.1744 62.2523 72.5024 62.2329 72.8498 62.3491C73.1779 62.4654 73.4287 62.6785 73.6024 63.0079L77.6743 71.1649L81.7654 63.0079Z" fill="url(#paint7_linear_85_240)"/>
<path id="Vector_41" d="M95.9103 73.5096C96.0647 73.8389 96.1033 74.1683 95.9875 74.5171C95.8717 74.8464 95.6594 75.0983 95.3313 75.2727C95.1384 75.3696 94.9454 75.4277 94.7524 75.4277C94.2121 75.4277 93.8068 75.1758 93.5752 74.6914L92.6296 72.7927H86.3964L85.4508 74.6914C85.2965 75.0208 85.0456 75.2339 84.6982 75.3502C84.3509 75.4665 84.0035 75.4471 83.6947 75.2727C83.3667 75.1177 83.1544 74.8658 83.0386 74.5171C82.9228 74.1683 82.9421 73.8196 83.1158 73.5096L88.3648 62.9888C88.5964 62.5432 88.9824 62.3301 89.542 62.3301C90.0823 62.3301 90.4683 62.5432 90.6999 62.9888L95.9103 73.5096ZM91.2981 70.1577L89.5034 66.5151L87.6894 70.1577H91.2981Z" fill="url(#paint8_linear_85_240)"/>
<path id="Vector_42" d="M95.9685 64.907C95.6019 64.907 95.2931 64.7907 95.0423 64.5389C94.7914 64.2676 94.6756 63.9576 94.6756 63.5895C94.6756 63.2214 94.7914 62.9114 95.0423 62.6401C95.3124 62.3882 95.6212 62.272 95.9685 62.272H104.961C105.328 62.272 105.637 62.3882 105.888 62.6401C106.139 62.9114 106.254 63.2214 106.254 63.5895C106.254 63.9576 106.139 64.2676 105.888 64.5389C105.617 64.7907 105.309 64.907 104.961 64.907H101.777V74.1102C101.777 74.4783 101.661 74.7883 101.411 75.0402C101.14 75.3115 100.832 75.4277 100.484 75.4277C100.118 75.4277 99.8088 75.2921 99.558 75.0402C99.2878 74.7883 99.172 74.4783 99.172 74.1102V64.907H95.9685Z" fill="url(#paint9_linear_85_240)"/>
<path id="Vector_43" d="M109.071 75.4274C108.704 75.4274 108.396 75.3111 108.145 75.0593C107.894 74.788 107.778 74.478 107.778 74.1293V63.6085C107.778 63.2404 107.894 62.9304 108.145 62.6591C108.415 62.4073 108.724 62.291 109.071 62.291C109.438 62.291 109.747 62.4073 109.997 62.6591C110.248 62.9304 110.364 63.2404 110.364 63.6085V74.1293C110.364 74.4974 110.248 74.8074 109.997 75.0593C109.747 75.2918 109.438 75.4274 109.071 75.4274Z" fill="url(#paint10_linear_85_240)"/>
<path id="Vector_44" d="M122.6 63.0079C122.754 62.6785 123.005 62.4654 123.352 62.3491C123.7 62.2329 124.047 62.2523 124.356 62.4073C124.684 62.5623 124.896 62.8335 125.012 63.1823C125.128 63.5117 125.108 63.8604 124.935 64.1704L119.686 74.6911C119.454 75.1755 119.068 75.4274 118.528 75.4274C117.987 75.4274 117.582 75.1755 117.351 74.6911L112.121 64.1704C111.967 63.841 111.928 63.5117 112.044 63.1823C112.159 62.8335 112.372 62.5817 112.7 62.4073C113.028 62.2523 113.356 62.2329 113.703 62.3491C114.031 62.4654 114.282 62.6785 114.456 63.0079L118.528 71.1649L122.6 63.0079Z" fill="url(#paint11_linear_85_240)"/>
<path id="Vector_45" d="M127.983 75.4274C127.617 75.4274 127.308 75.3111 127.057 75.0593C126.806 74.788 126.69 74.478 126.69 74.1293V63.6085C126.69 63.2404 126.806 62.9304 127.057 62.6591C127.327 62.4073 127.636 62.291 127.983 62.291H136.976C137.343 62.291 137.651 62.4073 137.922 62.6591C138.173 62.9304 138.288 63.2404 138.288 63.6085C138.288 63.9767 138.173 64.2867 137.922 64.5579C137.651 64.8098 137.343 64.926 136.976 64.926H129.296V67.5611H136.223C136.59 67.5611 136.899 67.6773 137.15 67.9292C137.42 68.2004 137.536 68.5104 137.536 68.8592C137.536 69.2273 137.401 69.5373 137.15 69.8086C136.899 70.0605 136.59 70.1767 136.223 70.1767H129.296V72.8117H136.976C137.343 72.8117 137.651 72.928 137.922 73.1799C138.173 73.4511 138.288 73.7611 138.288 74.1099C138.288 74.478 138.173 74.788 137.922 75.0399C137.651 75.2918 137.343 75.408 136.976 75.408H127.983V75.4274Z" fill="url(#paint12_linear_85_240)"/>
<path id="Vector_46" d="M68.9318 93.0975C68.6423 93.0975 68.4108 93.0006 68.1985 92.8069C68.0055 92.5938 67.909 92.3613 67.909 92.0706V86.8006L65.3424 90.0556C65.1494 90.3075 64.8792 90.4431 64.5319 90.4431C64.1845 90.4431 63.9144 90.3075 63.7214 90.0556L61.1548 86.8006V92.0706C61.1548 92.3613 61.0583 92.5938 60.8653 92.8069C60.653 93.0006 60.4214 93.0975 60.132 93.0975C59.8425 93.0975 59.6109 93.0006 59.3987 92.8069C59.2057 92.5938 59.1092 92.3613 59.1092 92.0706V83.8168C59.1092 83.3324 59.3408 83.003 59.8039 82.848C60.2671 82.6737 60.653 82.7899 60.9425 83.1774L64.5319 87.75L68.1213 83.1774C68.43 82.7899 68.7967 82.6737 69.2599 82.848C69.723 83.003 69.9546 83.3324 69.9546 83.8168V92.0706C69.9546 92.3613 69.8581 92.5938 69.6651 92.8069C69.4528 93.0006 69.2213 93.0975 68.9318 93.0975Z" fill="url(#paint13_linear_85_240)"/>
<path id="Vector_47" d="M76.5549 93.0976C75.1462 93.0976 73.9304 92.5939 72.9269 91.5864C71.9234 90.5789 71.4217 89.3776 71.4217 87.9438C71.4217 86.5101 71.9234 85.3088 72.9269 84.3013C73.9304 83.2938 75.1269 82.79 76.5549 82.79C77.9637 82.79 79.1794 83.2938 80.1829 84.3013C81.1864 85.3088 81.6881 86.5101 81.6881 87.9438C81.6881 89.3776 81.1864 90.5789 80.1829 91.5864C79.1794 92.5939 77.983 93.0976 76.5549 93.0976ZM76.5549 84.8438C75.7058 84.8438 74.9725 85.1538 74.3936 85.7544C73.7953 86.3551 73.4866 87.072 73.4866 87.9245C73.4866 88.777 73.7953 89.5132 74.3936 90.0945C74.9918 90.6951 75.7058 91.0051 76.5549 91.0051C77.404 91.0051 78.1373 90.6951 78.7163 90.0945C79.3145 89.4939 79.6233 88.777 79.6233 87.9245C79.6233 87.072 79.3145 86.3357 78.7163 85.7544C78.1373 85.1538 77.404 84.8438 76.5549 84.8438Z" fill="url(#paint14_linear_85_240)"/>
<path id="Vector_48" d="M90.6416 82.79C90.9311 82.79 91.1627 82.8869 91.3749 83.0807C91.5679 83.2938 91.6644 83.5263 91.6644 83.8169V88.5251C91.6644 89.7845 91.2206 90.8501 90.3329 91.7414C89.4452 92.6326 88.3645 93.0783 87.1294 93.0783C85.8751 93.0783 84.8137 92.6326 83.926 91.7414C83.0383 90.8501 82.5944 89.7651 82.5944 88.5251C82.5944 88.2345 82.6909 88.002 82.8839 87.8082C83.0962 87.5951 83.3277 87.4982 83.6172 87.4982C83.9067 87.4982 84.1382 87.5951 84.3505 87.8082C84.5435 88.002 84.64 88.2538 84.64 88.5251C84.64 89.2032 84.8909 89.8039 85.3733 90.2882C85.8558 90.7726 86.454 91.0245 87.1294 91.0245C87.8048 91.0245 88.4031 90.7726 88.8855 90.2882C89.368 89.8039 89.6188 89.2032 89.6188 88.5251V84.8438H85.6628C85.3733 84.8438 85.1417 84.7469 84.9488 84.5532C84.7365 84.3401 84.64 84.1076 84.64 83.8169C84.64 83.5263 84.7365 83.2938 84.9488 83.0807C85.1417 82.8869 85.3926 82.79 85.6628 82.79H90.6416Z" fill="url(#paint15_linear_85_240)"/>
<path id="Vector_49" d="M98.1098 93.0976C96.701 93.0976 95.4853 92.5939 94.4818 91.5864C93.4783 90.5789 92.9766 89.3776 92.9766 87.9438C92.9766 86.5101 93.4783 85.3088 94.4818 84.3013C95.4853 83.2938 96.6817 82.79 98.1098 82.79C99.5185 82.79 100.734 83.2938 101.738 84.3013C102.741 85.3088 103.243 86.5101 103.243 87.9438C103.243 89.3776 102.741 90.5789 101.738 91.5864C100.754 92.5939 99.5378 93.0976 98.1098 93.0976ZM98.1098 84.8438C97.2607 84.8438 96.5274 85.1538 95.9484 85.7544C95.3502 86.3551 95.0414 87.072 95.0414 87.9245C95.0414 88.777 95.3502 89.5132 95.9484 90.0945C96.5467 90.6951 97.2607 91.0051 98.1098 91.0051C98.9589 91.0051 99.6922 90.6951 100.271 90.0945C100.869 89.4939 101.178 88.777 101.178 87.9245C101.178 87.072 100.869 86.3357 100.271 85.7544C99.6922 85.1538 98.9782 84.8438 98.1098 84.8438Z" fill="url(#paint16_linear_85_240)"/>
</g>
<defs>
<linearGradient id="paint0_linear_85_240" x1="11.1439" y1="77.7718" x2="20.3885" y2="119.479" gradientUnits="userSpaceOnUse">
<stop stop-color="#946E2A"/>
<stop offset="0.0304335" stop-color="#99732C"/>
<stop offset="0.185" stop-color="#B18D3C"/>
<stop offset="0.3499" stop-color="#C6A54D"/>
<stop offset="0.528" stop-color="#D6B75B"/>
<stop offset="0.7288" stop-color="#E1C364"/>
<stop offset="1" stop-color="#E5C867"/>
</linearGradient>
<linearGradient id="paint1_linear_85_240" x1="128.417" y1="97.2226" x2="165.995" y2="97.2226" gradientUnits="userSpaceOnUse">
<stop offset="3.40978e-07" stop-color="#E5C867"/>
<stop offset="0.3516" stop-color="#E2C464"/>
<stop offset="0.5392" stop-color="#D8BA5D"/>
<stop offset="0.6881" stop-color="#CAAA51"/>
<stop offset="0.8167" stop-color="#B99542"/>
<stop offset="0.9311" stop-color="#A37E32"/>
<stop offset="1" stop-color="#946E2A"/>
</linearGradient>
<linearGradient id="paint2_linear_85_240" x1="74.5642" y1="19.0444" x2="84.3603" y2="63.2402" gradientUnits="userSpaceOnUse">
<stop stop-color="#946E2A"/>
<stop offset="0.0304335" stop-color="#99732C"/>
<stop offset="0.185" stop-color="#B18D3C"/>
<stop offset="0.3499" stop-color="#C6A54D"/>
<stop offset="0.528" stop-color="#D6B75B"/>
<stop offset="0.7288" stop-color="#E1C364"/>
<stop offset="1" stop-color="#E5C867"/>
</linearGradient>
<linearGradient id="paint3_linear_85_240" x1="25.7992" y1="75.4139" x2="25.2862" y2="62.276" gradientUnits="userSpaceOnUse">
<stop stop-color="#9D712A"/>
<stop offset="0.1231" stop-color="#A1762C"/>
<stop offset="0.2823" stop-color="#AD8434"/>
<stop offset="0.4604" stop-color="#C29D45"/>
<stop offset="0.6173" stop-color="#DFBF5F"/>
<stop offset="1" stop-color="#E5C867"/>
</linearGradient>
<linearGradient id="paint4_linear_85_240" x1="35.5393" y1="75.5893" x2="35.0121" y2="62.086" gradientUnits="userSpaceOnUse">
<stop stop-color="#9D712A"/>
<stop offset="0.1231" stop-color="#A1762C"/>
<stop offset="0.2823" stop-color="#AD8434"/>
<stop offset="0.4604" stop-color="#C29D45"/>
<stop offset="0.6173" stop-color="#DFBF5F"/>
<stop offset="1" stop-color="#E5C867"/>
</linearGradient>
<linearGradient id="paint5_linear_85_240" x1="49.766" y1="75.5893" x2="49.2388" y2="62.086" gradientUnits="userSpaceOnUse">
<stop stop-color="#9D712A"/>
<stop offset="0.1231" stop-color="#A1762C"/>
<stop offset="0.2823" stop-color="#AD8434"/>
<stop offset="0.4604" stop-color="#C29D45"/>
<stop offset="0.6173" stop-color="#DFBF5F"/>
<stop offset="1" stop-color="#E5C867"/>
</linearGradient>
<linearGradient id="paint6_linear_85_240" x1="63.9864" y1="75.4186" x2="63.473" y2="62.2716" gradientUnits="userSpaceOnUse">
<stop stop-color="#9D712A"/>
<stop offset="0.1231" stop-color="#A1762C"/>
<stop offset="0.2823" stop-color="#AD8434"/>
<stop offset="0.4604" stop-color="#C29D45"/>
<stop offset="0.6173" stop-color="#DFBF5F"/>
<stop offset="1" stop-color="#E5C867"/>
</linearGradient>
<linearGradient id="paint7_linear_85_240" x1="78.1445" y1="75.4065" x2="77.6232" y2="62.0565" gradientUnits="userSpaceOnUse">
<stop stop-color="#9D712A"/>
<stop offset="0.1231" stop-color="#A1762C"/>
<stop offset="0.2823" stop-color="#AD8434"/>
<stop offset="0.4604" stop-color="#C29D45"/>
<stop offset="0.6173" stop-color="#DFBF5F"/>
<stop offset="1" stop-color="#E5C867"/>
</linearGradient>
<linearGradient id="paint8_linear_85_240" x1="89.5567" y1="75.6266" x2="89.038" y2="62.3405" gradientUnits="userSpaceOnUse">
<stop stop-color="#9D712A"/>
<stop offset="0.1231" stop-color="#A1762C"/>
<stop offset="0.2823" stop-color="#AD8434"/>
<stop offset="0.4604" stop-color="#C29D45"/>
<stop offset="0.6173" stop-color="#DFBF5F"/>
<stop offset="1" stop-color="#E5C867"/>
</linearGradient>
<linearGradient id="paint9_linear_85_240" x1="100.916" y1="75.4063" x2="100.396" y2="62.0932" gradientUnits="userSpaceOnUse">
<stop stop-color="#9D712A"/>
<stop offset="0.1231" stop-color="#A1762C"/>
<stop offset="0.2823" stop-color="#AD8434"/>
<stop offset="0.4604" stop-color="#C29D45"/>
<stop offset="0.6173" stop-color="#DFBF5F"/>
<stop offset="1" stop-color="#E5C867"/>
</linearGradient>
<linearGradient id="paint10_linear_85_240" x1="109.322" y1="75.4139" x2="108.809" y2="62.276" gradientUnits="userSpaceOnUse">
<stop stop-color="#9D712A"/>
<stop offset="0.1231" stop-color="#A1762C"/>
<stop offset="0.2823" stop-color="#AD8434"/>
<stop offset="0.4604" stop-color="#C29D45"/>
<stop offset="0.6173" stop-color="#DFBF5F"/>
<stop offset="1" stop-color="#E5C867"/>
</linearGradient>
<linearGradient id="paint11_linear_85_240" x1="118.989" y1="75.4065" x2="118.468" y2="62.0565" gradientUnits="userSpaceOnUse">
<stop stop-color="#9D712A"/>
<stop offset="0.1231" stop-color="#A1762C"/>
<stop offset="0.2823" stop-color="#AD8434"/>
<stop offset="0.4604" stop-color="#C29D45"/>
<stop offset="0.6173" stop-color="#DFBF5F"/>
<stop offset="1" stop-color="#E5C867"/>
</linearGradient>
<linearGradient id="paint12_linear_85_240" x1="132.746" y1="75.5891" x2="132.22" y2="62.1008" gradientUnits="userSpaceOnUse">
<stop stop-color="#9D712A"/>
<stop offset="0.1231" stop-color="#A1762C"/>
<stop offset="0.2823" stop-color="#AD8434"/>
<stop offset="0.4604" stop-color="#C29D45"/>
<stop offset="0.6173" stop-color="#DFBF5F"/>
<stop offset="1" stop-color="#E5C867"/>
</linearGradient>
<linearGradient id="paint13_linear_85_240" x1="64.7399" y1="93.2575" x2="64.324" y2="82.6073" gradientUnits="userSpaceOnUse">
<stop stop-color="#9D712A"/>
<stop offset="0.1231" stop-color="#A1762C"/>
<stop offset="0.2823" stop-color="#AD8434"/>
<stop offset="0.4604" stop-color="#C29D45"/>
<stop offset="0.6173" stop-color="#DFBF5F"/>
<stop offset="1" stop-color="#E5C867"/>
</linearGradient>
<linearGradient id="paint14_linear_85_240" x1="76.7601" y1="93.0897" x2="76.3579" y2="82.7888" gradientUnits="userSpaceOnUse">
<stop stop-color="#9D712A"/>
<stop offset="0.1231" stop-color="#A1762C"/>
<stop offset="0.2823" stop-color="#AD8434"/>
<stop offset="0.4604" stop-color="#C29D45"/>
<stop offset="0.6173" stop-color="#DFBF5F"/>
<stop offset="1" stop-color="#E5C867"/>
</linearGradient>
<linearGradient id="paint15_linear_85_240" x1="87.386" y1="93.0865" x2="86.9817" y2="82.7325" gradientUnits="userSpaceOnUse">
<stop stop-color="#9D712A"/>
<stop offset="0.1231" stop-color="#A1762C"/>
<stop offset="0.2823" stop-color="#AD8434"/>
<stop offset="0.4604" stop-color="#C29D45"/>
<stop offset="0.6173" stop-color="#DFBF5F"/>
<stop offset="1" stop-color="#E5C867"/>
</linearGradient>
<linearGradient id="paint16_linear_85_240" x1="98.3188" y1="93.0897" x2="97.9166" y2="82.7888" gradientUnits="userSpaceOnUse">
<stop stop-color="#9D712A"/>
<stop offset="0.1231" stop-color="#A1762C"/>
<stop offset="0.2823" stop-color="#AD8434"/>
<stop offset="0.4604" stop-color="#C29D45"/>
<stop offset="0.6173" stop-color="#DFBF5F"/>
<stop offset="1" stop-color="#E5C867"/>
</linearGradient>
</defs>
</svg>
